Jianyu (2010) Reign of Assassins NTSC BR2DIVX      


China
Actie
117 minuten

geregisseerd door Chao-Bin Su en John Woo
met Michelle Yeoh, Woo-sung Jung en Kelly Lin

Een gepensioneerde huurmoordenares (Michelle Yeoh) wordt gedwongen haar rustige leventje op te geven als haar voormalige collega\'s naar haar op zoek zijn. Ze willen het lichaam van de Bodhidharma naar zijn laatste rustplaats brengen. Om het allemaal nog lastiger te maken komt ze er achter dat haar man de zoon is van één van haar slachtoffers, en is hij wellicht op zoek naar wraak...
 
http://www.moviemeter.nl/film/33599

English

Set in ancient China, Zeng Jing is a skilled assassin who finds herself in possession of a mystical Buddhist monk\'s remains. She begins a quest to return the remains to its rightful resting place, and thus places herself in mortal danger because a team of assassins is in a deadly pursuit to possess the remains which holds an ancient power-wielding secret.

 
http://www.imdb.com/title/tt1460743/


General

Format                           : DivX
Format/Info                      : Hack of AVI
File size                        : 1.46 GiB
Duration                         : 1h 59mn
Overall bit rate                 : 1 742 Kbps

Video
ID                               : 0
Format                           : MPEG-4 Visual
Format profile                   : Advanced Simple@L5
Format settings, BVOP            : Yes
Format settings, QPel            : No
Format settings, GMC             : No warppoints
Format settings, Matrix          : Default (H.263)
Muxing mode                      : Packed bitstream
Codec ID                         : DX50
Codec ID/Hint                    : DivX 5
Duration                         : 1h 59mn
Bit rate                         : 1 284 Kbps
Width                            : 720 pixels
Height                           : 352 pixels
Display aspect ratio             : 2.045
Frame rate                       : 23.976 fps
Color space                      : YUV
Chroma subsampling               : 4:2:0
Bit depth                        : 8 bits
Scan type                        : Progressive
Bits/(Pixel*Frame)               : 0.211
Stream size                      : 1.07 GiB (74%)
Title                            : Video 
Writing library                  : XviD 1.2.1 (UTC 2008-12-04)

Audio
ID                               : 1
Format                           : AC-3
Format/Info                      : Audio Coding 3
Mode extension                   : CM (complete main)
Codec ID                         : 2000
Duration                         : 1h 59mn
Bit rate mode                    : Constant
Bit rate                         : 448 Kbps
Channel(s)                       : 6 channels
Channel positions                : Front: L C R, Side: L R, LFE
Sampling rate                    : 48.0 KHz
Bit depth                        : 16 bits
Stream size                      : 384 MiB (26%)
Alignment                        : Split accross interleaves
Interleave, duration             : 42 ms (1.00 video frame)
Interleave, preload duration     : 500 ms
Title                            : Audio 


SOURCE..........: DVD5
SIZE............: 1.45GB
FORM............: AVI
VIDEO CODEC.....: XVID 
BITRATE.........: 1293 Kbit/s
WIDTH & HEIGHT..: 720 X 352
FRAMES/S........: 23.976 Fps
AUDIO...........: Mandarin
AUDIO CODE......: AC3
BITRATE.........: 448kbps
CHANNELS........: 5
SAMPLING........: 48.0 kHz
Subtitles.......: Dutch srt
Cover ..........: Yes
Formaat ........: DivX 
Bron........... : Retail
Thanks .........: Hannes3
 
Ondertitels : Nederlands (extern)
 
 

 
Weblink :  http://www.moviemeter.nl/film/33599
Weblink :  http://www.imdb.com/title/tt1460743